<?xml version="1.0" encoding="utf-8"?>
<!-- Generator: Adobe Illustrator 21.0.2, SVG Export Plug-In . SVG Version: 6.00 Build 0)  -->
<svg version="1.1" id="Layer_1" xmlns="http://www.w3.org/2000/svg" xmlns:xlink="http://www.w3.org/1999/xlink" x="0px" y="0px"
	 viewBox="0 0 130 27" style="enable-background:new 0 0 130 27;" xml:space="preserve">
<g>
	<path d="M0,15.3h5.8v5.8H0V15.3z"/>
	<path d="M9,0.3h5.8v8.4L22,0.3h6.8l-7.9,8.9L29,21.1h-6.9l-5.2-7.7l-2.1,2.3v5.4H9V0.3z"/>
	<path d="M28.4,10.8L28.4,10.8c0-6,4.8-10.9,11.2-10.9s11.2,4.8,11.2,10.7v0c0,6-4.8,10.8-11.2,10.8C33.1,21.5,28.4,16.7,28.4,10.8z
		 M44.8,10.8L44.8,10.8c0-3.1-2.1-5.7-5.3-5.7s-5.3,2.6-5.3,5.5v0c0,3,2.2,5.6,5.3,5.6C42.7,16.3,44.8,13.7,44.8,10.8z"/>
	<path d="M53.7,0.3h8c7.4,0,11.7,4.3,11.7,10.3v0c0,6-4.4,10.5-11.8,10.5h-7.9L53.7,0.3L53.7,0.3z M59.5,5.4V16h2.4
		c3.5,0,5.8-1.9,5.8-5.2v0c0-3.3-2.3-5.3-5.8-5.3L59.5,5.4L59.5,5.4z"/>
</g>
<g>
	<path d="M82.4,20.3c-1.1,0-2.1-0.3-3.1-0.8c-0.9-0.6-1.6-1.3-2.2-2.2v2.7H75V-0.1h2.4v8.6c0.6-0.9,1.4-1.7,2.2-2.3
		c0.9-0.6,1.9-0.9,3.1-0.9c1,0,1.9,0.2,2.7,0.6c0.8,0.4,1.5,1,2,1.7c0.6,0.7,1,1.5,1.3,2.4c0.3,0.9,0.5,1.8,0.5,2.8
		c0,1-0.2,2-0.5,2.9c-0.4,0.9-0.8,1.7-1.4,2.4c-0.6,0.7-1.3,1.2-2.2,1.6C84.3,20.1,83.4,20.3,82.4,20.3z M81.8,18.2
		c0.7,0,1.4-0.1,2-0.4c0.6-0.3,1.1-0.7,1.6-1.2c0.4-0.5,0.8-1.1,1-1.7c0.2-0.6,0.4-1.3,0.4-2c0-0.7-0.1-1.4-0.3-2
		c-0.2-0.7-0.6-1.2-1-1.7C85.1,8.7,84.6,8.3,84,8c-0.6-0.3-1.2-0.5-1.9-0.5c-0.5,0-1,0.1-1.5,0.3c-0.5,0.2-0.9,0.4-1.3,0.7
		c-0.4,0.3-0.7,0.7-1,1.1c-0.3,0.4-0.6,0.8-0.8,1.3V15c0.1,0.5,0.3,0.9,0.6,1.3s0.7,0.7,1.1,1c0.4,0.3,0.9,0.5,1.3,0.7
		C80.9,18.2,81.4,18.2,81.8,18.2z"/>
	<path d="M92.3-0.1h2.4v16.4c0,0.5,0.1,1,0.4,1.3c0.3,0.3,0.7,0.5,1.2,0.5c0.2,0,0.4,0,0.7-0.1c0.3-0.1,0.5-0.1,0.8-0.2l0.4,2
		c-0.4,0.2-0.9,0.3-1.4,0.4c-0.6,0.1-1,0.2-1.5,0.2c-0.9,0-1.7-0.3-2.2-0.8c-0.5-0.5-0.8-1.3-0.8-2.2V-0.1z"/>
	<path d="M106.4,20.3c-1.1,0-2.1-0.2-3-0.6c-0.9-0.4-1.7-0.9-2.3-1.6c-0.6-0.7-1.1-1.5-1.5-2.4c-0.4-0.9-0.5-1.9-0.5-2.8
		c0-1,0.2-2,0.5-2.9c0.4-0.9,0.9-1.7,1.5-2.4c0.6-0.7,1.4-1.2,2.3-1.6c0.9-0.4,1.9-0.6,2.9-0.6c1.1,0,2.1,0.2,3,0.6
		c0.9,0.4,1.7,0.9,2.3,1.6c0.6,0.7,1.1,1.5,1.5,2.4c0.4,0.9,0.5,1.9,0.5,2.9c0,1-0.2,1.9-0.5,2.8c-0.4,0.9-0.8,1.7-1.5,2.4
		c-0.6,0.7-1.4,1.2-2.3,1.6C108.5,20.1,107.5,20.3,106.4,20.3z M101.7,12.9c0,0.8,0.1,1.5,0.4,2.1c0.2,0.6,0.6,1.2,1,1.7
		c0.4,0.5,0.9,0.9,1.5,1.1c0.6,0.3,1.2,0.4,1.9,0.4s1.3-0.1,1.9-0.4c0.6-0.3,1.1-0.7,1.5-1.1c0.4-0.5,0.8-1.1,1-1.7
		c0.2-0.7,0.4-1.4,0.4-2.1c0-0.7-0.1-1.4-0.4-2.1c-0.2-0.7-0.6-1.2-1-1.7c-0.4-0.5-1-0.9-1.5-1.1c-0.6-0.3-1.2-0.4-1.9-0.4
		s-1.3,0.1-1.9,0.4c-0.6,0.3-1.1,0.7-1.5,1.2c-0.4,0.5-0.8,1.1-1,1.7C101.8,11.5,101.7,12.2,101.7,12.9z"/>
	<path d="M122.4,20.2c-1,0-1.9-0.2-2.7-0.6c-0.8-0.4-1.5-0.9-2.1-1.6c-0.6-0.7-1-1.5-1.4-2.3c-0.3-0.9-0.5-1.8-0.5-2.8
		c0-1,0.2-2,0.5-2.9c0.3-0.9,0.8-1.7,1.4-2.4s1.3-1.2,2.1-1.6c0.8-0.4,1.7-0.6,2.7-0.6c1.2,0,2.3,0.3,3.1,0.9
		c0.9,0.6,1.6,1.3,2.2,2.2V5.6h2.2v14.3c0,1-0.2,1.9-0.6,2.7c-0.4,0.8-0.9,1.4-1.6,2c-0.7,0.5-1.4,0.9-2.3,1.2
		c-0.9,0.3-1.8,0.4-2.9,0.4c-1.6,0-3-0.3-4-0.8c-1-0.6-1.9-1.3-2.6-2.3l1.4-1.2c0.6,0.8,1.3,1.5,2.2,1.9c0.9,0.4,1.9,0.6,2.9,0.6
		c0.7,0,1.3-0.1,1.9-0.3c0.6-0.2,1.1-0.5,1.6-0.8c0.4-0.4,0.8-0.8,1.1-1.4c0.3-0.6,0.4-1.2,0.4-2v-2.5c-0.3,0.4-0.6,0.8-1,1.2
		c-0.4,0.4-0.8,0.7-1.2,0.9c-0.4,0.2-0.9,0.4-1.4,0.6C123.5,20.2,122.9,20.2,122.4,20.2z M123.2,18.2c0.5,0,1-0.1,1.5-0.3
		c0.5-0.2,0.9-0.4,1.3-0.7c0.4-0.3,0.7-0.7,1-1c0.3-0.4,0.5-0.8,0.6-1.2v-4.1c-0.2-0.5-0.5-0.9-0.8-1.4c-0.3-0.4-0.7-0.8-1.1-1.1
		c-0.4-0.3-0.8-0.5-1.3-0.7c-0.5-0.2-0.9-0.2-1.4-0.2c-0.7,0-1.4,0.2-2,0.5c-0.6,0.3-1.1,0.7-1.5,1.2c-0.4,0.5-0.7,1.1-0.9,1.8
		c-0.2,0.7-0.3,1.3-0.3,2c0,0.7,0.1,1.4,0.4,2c0.3,0.6,0.6,1.2,1,1.7c0.4,0.5,1,0.9,1.6,1.1C121.8,18.1,122.5,18.2,123.2,18.2z"/>
</g>
</svg>
